Coordinates
version=1
nRows=22
nColumns=24
inDegrees=yes

Units are S.I. units (second, meters, Newtons, ...)
Angles are in degrees.

endheader
time	pelvis_tilt	pelvis_list	pelvis_rotation	pelvis_tx	pelvis_ty	pelvis_tz	hip_flexion_r	hip_adduction_r	hip_rotation_r	knee_angle_r	ankle_angle_r	subtalar_angle_r	mtp_angle_r	hip_flexion_l	hip_adduction_l	hip_rotation_l	knee_angle_l	ankle_angle_l	subtalar_angle_l	mtp_angle_l	lumbar_extension	lumbar_bending	lumbar_rotation
      3.71000000	     -8.25472028	      7.56649194	      2.55799064	     -0.71589731	     -0.01673118	      0.66204758	     40.51506653	    -11.39100321	     -2.90739523	    -61.50035017	    -15.62208732	    -18.85763428	     20.57734664	      2.84476427	     11.72865476	     16.18977554	    -13.14300652	     16.98200703	    -11.72306362	    -35.08608861	      6.87023018	     -8.53386049	     -7.91479324
      3.71500000	     -8.30691732	      7.45121348	      2.59988721	     -0.70920042	     -0.01713199	      0.66178759	     40.94200004	    -11.13329953	     -2.73980455	    -60.38350178	    -15.32168565	    -18.53780859	     20.57737111	      2.24309689	     11.51119409	     16.15455229	    -12.69371958	     17.10484819	    -11.43688286	    -34.83251626	      6.86539669	     -8.35186734	     -8.08882817
      3.72000000	     -8.20220678	      7.34059003	      2.67115452	     -0.70259661	     -0.01748762	      0.66166886	     41.16387934	    -10.88987693	     -2.59278934	    -59.24871305	    -14.82918423	    -18.04091501	     20.19551982	      1.55539544	     11.25025738	     15.60423281	    -12.32794219	     16.54625405	    -10.68291872	    -31.45198793	      6.66065988	     -8.19786356	     -8.36183643
      3.72500000	     -8.18777980	      7.28922241	      2.69709471	     -0.69591578	     -0.01795851	      0.66143054	     41.47250954	    -10.68656145	     -2.33013421	    -58.04658913	    -14.48355679	    -17.53066976	     20.44180613	      0.88808055	     11.09002949	     15.49426639	    -11.89111115	     16.72196448	    -10.28076189	    -31.29712066	      6.57786402	     -8.07344490	     -8.52871259
      3.73000000	     -8.09557476	      7.27450157	      2.75590740	     -0.68933938	     -0.01841342	      0.66125241	     41.66225149	    -10.53107004	     -2.05638382	    -56.79909048	    -14.07965738	    -17.01794756	     20.68776748	      0.18338035	     10.95410074	     15.25381929	    -11.53502734	     16.92282487	     -9.62963353	    -30.93653685	      6.37393712	     -8.00486787	     -8.75485179
      3.73500000	     -8.12391608	      7.19713721	      2.80246550	     -0.68260893	     -0.01898583	      0.66099657	     41.93701536	    -10.32228255	     -1.80056750	    -55.48855059	    -13.75057812	    -16.48048956	     20.84905364	     -0.41190400	     10.76458202	     15.08254826	    -11.15151333	     17.08236192	     -9.11027360	    -30.61201456	      6.33829877	     -7.85247657	     -8.93719704
      3.74000000	     -8.10848843	      7.12152490	      2.87945034	     -0.67601875	     -0.01962002	      0.66095124	     42.13295028	    -10.10746335	     -1.55096065	    -54.14386507	    -13.38665891	    -16.07494998	     20.77932421	     -0.94171547	     10.53288085	     14.33210360	    -10.87960919	     16.36417291	     -8.11316875	    -26.50453380	      6.21823232	     -7.73644637	     -9.18442845
      3.74500000	     -8.12589350	      7.09752573	      2.93170141	     -0.66931952	     -0.02027343	      0.66068992	     42.33693871	     -9.96229653	     -1.24477779	    -52.74854592	    -13.01635307	    -15.51579464	     20.94265322	     -1.53679867	     10.40697142	     14.20614641	    -10.52703098	     16.50345760	     -7.63017693	    -26.34808963	      6.15268663	     -7.63670014	     -9.34848681
      3.75000000	     -8.13013125	      7.07083938	      3.02023167	     -0.66265384	     -0.02094311	      0.66040787	     42.48233412	     -9.85110151	     -0.97919122	    -51.30338362	    -12.62225971	    -14.96768713	     21.05409650	     -2.09855957	     10.27502388	     13.99633235	    -10.26469617	     16.68837047	     -6.96530410	    -26.06124510	      6.06265742	     -7.53926611	     -9.58009525
      3.75500000	     -8.09883680	      6.96018767	      3.02322552	     -0.65595246	     -0.02159515	      0.66045299	     42.54647180	     -9.57478967	     -0.72247656	    -49.78759042	    -12.34429441	    -14.77825475	     20.67083782	     -2.61219248	     10.01672754	     13.24221212	    -10.09556730	     16.66309049	     -5.83981053	    -24.24885742	      5.94639875	     -7.36164353	     -9.73035702
      3.76000000	     -8.13260257	      6.91969325	      3.14698734	     -0.64929410	     -0.02237537	      0.66021874	     42.65051897	     -9.48086258	     -0.47589683	    -48.27449514	    -11.87411000	    -14.20890775	     20.51846143	     -3.08637859	      9.85413607	     12.81160894	     -9.86185113	     16.00213869	     -5.12718407	    -21.00707019	      5.87593952	     -7.26072847	     -9.96044246
      3.76500000	     -8.31075752	      6.90087387	      3.31888586	     -0.64259566	     -0.02326970	      0.65977401	     42.86828195	     -9.46258580	     -0.25826398	    -46.69724740	    -11.53652660	    -13.78864665	     20.60765019	     -3.41823481	      9.76986111	     12.82290069	     -9.69887624	     16.07385076	     -4.74875304	    -20.88234497	      5.96670603	     -7.17181824	    -10.26192389
      3.77000000	     -8.35643995	      6.81414836	      3.43524497	     -0.63584194	     -0.02404421	      0.65956066	     42.89855001	     -9.34158098	     -0.08252387	    -45.08064098	    -11.18293785	    -13.45375938	     20.34286245	     -3.81839630	      9.56776175	     12.29370730	     -9.62548204	     16.17763322	     -3.73220820	    -19.82520698	      5.92069527	     -7.01681067	    -10.48324864
      3.77500000	     -8.48211000	      6.81462684	      3.69697005	     -0.62919367	     -0.02491770	      0.65904047	     42.98815507	     -9.42772650	      0.06566583	    -43.46845759	    -10.76122821	    -12.92924400	     20.32960467	     -4.14941865	      9.49451948	     12.26109744	     -9.56318566	     16.16307122	     -3.17338148	    -19.18078087	      5.92825125	     -6.95968961	    -10.86341474
      3.78000000	     -8.70162987	      6.72530676	      3.84210642	     -0.62230413	     -0.02587568	      0.65861009	     43.13090084	     -9.34487900	      0.26932409	    -41.78522757	    -10.45141222	    -12.59744293	     20.31917091	     -4.39606476	      9.34844908	     12.25204367	     -9.47925864	     16.19216881	     -2.83410180	    -18.95870644	      6.09484335	     -6.77931883	    -11.06074852
      3.78500000	     -8.75830318	      6.54432533	      3.96559413	     -0.61537860	     -0.02667311	      0.65850292	     43.04909705	     -9.14038685	      0.40887046	    -40.09484654	    -10.08359432	    -12.35063431	     19.67460951	     -4.70567174	      9.03154376	     11.48589698	     -9.51363618	     16.01158690	     -1.60064442	    -16.59032412	      6.08788943	     -6.52837650	    -11.26998119
      3.79000000	     -8.99174809	      6.50830219	      4.29568670	     -0.60853537	     -0.02764907	      0.65785469	     43.14145960	     -9.26728240	      0.48899771	    -38.43500462	     -9.70741892	    -11.85921211	     19.84618432	     -4.90959079	      8.93156232	     11.50569794	     -9.40071113	     15.00692078	     -1.42686494	    -13.26609439	      6.23896420	     -6.43580099	    -11.68068803
      3.79500000	     -9.19970951	      6.38483693	      4.52933939	     -0.60149251	     -0.02858056	      0.65733807	     43.16455292	     -9.24152977	      0.59950944	    -36.75409176	     -9.38252274	    -11.43904056	     19.87027158	     -5.10787186	      8.74443149	     11.45005333	     -9.44666780	     15.11688388	     -0.87460570	    -13.12742825	      6.40631115	     -6.23126933	    -11.95599316
      3.80000000	     -9.32928029	      6.26357578	      4.81868470	     -0.59455502	     -0.02942669	      0.65682425	     43.07551150	     -9.23868589	      0.73393229	    -35.10386840	     -9.08422416	    -11.07514553	     19.77450749	     -5.32314306	      8.54192001	     11.23220640	     -9.59512002	     15.23091386	     -0.07813231	    -12.63517045	      6.46035622	     -6.03515006	    -12.31673281
      3.80500000	     -9.51752563	      6.11031829	      5.09954995	     -0.58738167	     -0.03033657	      0.65625098	     43.01297831	     -9.21835329	      0.83420096	    -33.48154836	     -8.72166644	    -10.64889078	     19.76748829	     -5.50380142	      8.32175589	     11.11866003	     -9.70330817	     15.21447593	      0.46499985	    -12.13025940	      6.62189956	     -5.79925805	    -12.63825543
      3.81000000	     -9.66831471	      5.93213481	      5.39067348	     -0.58023134	     -0.03116761	      0.65569565	     42.89027152	     -9.17444591	      0.97597412	    -31.90549147	     -8.46676960	    -10.20544817	     19.73663340	     -5.69475384	      8.05871579	     10.94466459	     -9.84433981	     15.14777029	      1.14778217	    -11.30405193	      6.73776837	     -5.53285202	    -12.95358448
      3.81500000	     -9.90933465	      5.75451411	      5.60072151	     -0.57282703	     -0.03213857	      0.65513351	     42.85709464	     -9.07766303	      1.21374218	    -30.39611276	     -8.19423118	     -9.78463679	     19.79798563	     -5.83857789	      7.83471178	     10.93603109	     -9.92843068	     15.05903251	      1.42072808	    -11.06877398	      7.00380058	     -5.24328024	    -13.11856799
